<svg xmlns="http://www.w3.org/2000/svg" xmlns:xlink="http://www.w3.org/1999/xlink" width="47.702mm" height="23.966999mm" viewBox="0 0 47.701999 23.967"><defs><linearGradient xlink:href="#a" id="c" x1="0" x2="1" y1="0" y2="0" gradientTransform="rotate(-106.123 13.915 .408) scale(9.0969)" gradientUnits="userSpaceOnUse" spreadMethod="pad"/><linearGradient id="a" x1="0" x2="1" y1="0" y2="0" gradientTransform="scale(-6.63812) rotate(73.877 .04 -1.89)" gradientUnits="userSpaceOnUse" spreadMethod="pad"><stop offset="0" style="stop-opacity:1;stop-color:#fff"/><stop offset="0.398876" style="stop-opacity:1;stop-color:#fff"/><stop offset="1" style="stop-opacity:1;stop-color:#488ca7"/></linearGradient><radialGradient id="b" cx="0" cy="0" r="1" fx="0" fy="0" gradientTransform="matrix(14.36313 0 0 14.36313 13.398 16.092)" gradientUnits="userSpaceOnUse" spreadMethod="pad"><stop offset="0" style="stop-opacity:1;stop-color:#fff"/><stop offset="0.606741" style="stop-opacity:1;stop-color:#fff"/><stop offset="1" style="stop-opacity:1;stop-color:#488ca7"/></radialGradient></defs><path d="m4.96 1.416-3.856 16.86h4.775l.888-3.816c.026.091.057.183.09.275-.054-.149-.09-.26-.09-.26.003.032.018.09.041.161.065.231.226.69.53 1.199l.085.143.02.032-.026-.03.143.213c.44.627 1.06 1.145 1.854 1.506.759.345 1.62.522 2.541.55l-.001.004H28.09l.121.004c4.283.007 8.085-3.452 8.603-8.198.514-4.746-2.523-8.617-6.804-8.625v.001l-.09-.004h-9.644l-.002.003c-.029 0-.057-.005-.086-.005-.83 0-1.705.122-2.595.349l.015-.006-.04.011-.233.063c-4.447 1.158-7.394 4.405-7.357 4.362a16.129 16.129 0 0 0-1.88 2.4l1.637-7.193Zm1.988 13.538c.016.037.031.074.05.111l.023.064c-.03-.062-.048-.114-.073-.175z" style="fill:#fff;fill-opacity:1;fill-rule:nonzero;stroke:#fff;stroke-width:2.43939;stroke-linejoin:round;stroke-miterlimit:4;stroke-dasharray:none;stroke-opacity:1" transform="matrix(1.24865 0 0 1.24176 .145 -.243)"/><path d="m30.031 1.498-.089-.004h-9.645l-1.237 3.05-.019.05-.26.613h9.279c2.763 0 4.59 2.067 4.081 4.617l-.042.213c-.51 2.55-3.163 4.616-5.928 4.616H13.359l-.186.492-1.198 3.17h16.136l.122.005c4.283.007 8.085-3.452 8.602-8.198.514-4.746-2.523-8.616-6.804-8.624" style="fill:#004990;fill-opacity:1;fill-rule:nonzero;stroke:none;stroke-width:.500167" transform="matrix(1.24865 0 0 1.24176 .145 -.243)"/><path d="M9.624 6.903c-3.748 4.337-3.834 9.194-.192 10.85 3.641 1.656 9.63-.518 13.379-4.855 3.749-4.336 3.835-9.195.193-10.85-.828-.376-1.778-.555-2.795-.555-3.456 0-7.689 2.06-10.585 5.41m.627 5.659c-.377-2.506 1.98-5.78 5.266-7.316 3.287-1.534 6.257-.745 6.635 1.76.375 2.506-1.983 5.782-5.268 7.316-1.136.531-2.236.784-3.202.784-1.829 0-3.185-.905-3.431-2.544" style="fill:url(#b);stroke:none;stroke-width:.500167" transform="matrix(1.24865 0 0 1.24176 .145 -.243)"/><path d="M21.697 5.62c1.459 1.92.179 5.348-2.86 7.656-3.038 2.306-6.685 2.617-8.144.695-1.459-1.923-.179-5.35 2.86-7.657 3.038-2.306 6.685-2.618 8.144-.695" style="fill:#fff;fill-opacity:1;fill-rule:nonzero;stroke:none;stroke-width:.500167" transform="matrix(1.24865 0 0 1.24176 .145 -.243)"/><path d="M15.517 5.246c-3.285 1.536-5.643 4.81-5.266 7.316.376 2.506 3.346 3.294 6.633 1.76 3.285-1.534 5.643-4.81 5.268-7.316-.248-1.639-1.604-2.543-3.432-2.543-.967 0-2.066.253-3.203.783m-2.924 6.222c-.229-1.52 1.2-3.504 3.194-4.434 1.992-.93 3.792-.453 4.02 1.067.23 1.519-1.2 3.505-3.193 4.434-.69.322-1.356.475-1.942.475-1.108 0-1.93-.548-2.079-1.542" style="fill:url(#c);stroke:none;stroke-width:.500167" transform="matrix(1.24865 0 0 1.24176 .145 -.243)"/><path d="M12.307 11.155c-3.2-1.488-1.372-4.119-1.372-4.119 2.32-3.877 6.694-5.2 6.694-5.2-4.6 1.09-7.668 4.48-7.63 4.436a16.13 16.13 0 0 0-1.88 2.4l1.637-7.193H4.982L1.125 18.34H5.9l.888-3.817c.25.889.835 1.846 2.207 1.89v.002c.093.001.191.001.294-.009.707-.04 1.51-.329 2.242-.838.146-.101.289-.21.428-.328 1.434-1.222 1.895-2.882 1.028-3.708a1.577 1.577 0 0 0-.68-.376" style="fill:#c80067;fill-opacity:1;fill-rule:nonzero;stroke:none;stroke-width:.500167" transform="matrix(1.24865 0 0 1.24176 .145 -.243)"/><path d="M23.391 8.597s-1.242-.72-3.185.507c0 0-1.618.964-2.01 2.58 0 0-.425 1.422-.768 1.928 0 0-1.003 2.293-3.506 3.237 0 0-2.11.86-4.18.45a3.769 3.769 0 0 1-.168-.037h-.002a3.42 3.42 0 0 1-1.211-.569 5.009 5.009 0 0 1-.199-.164l-.007-.007c-.369-.318-.812-.77-1.104-1.308-.157-.324-.262-.676-.262-.676.003.032.018.09.04.16.073.259.254.797.635 1.375l-.025-.03.143.213c.44.627 1.06 1.145 1.854 1.506 3.641 1.655 9.631-.518 13.38-4.854.221-.256.428-.515.624-.773l.024-.034s1.66-2.54-.072-3.504" style="fill:#004990;fill-opacity:1;fill-rule:nonzero;stroke:none;stroke-width:.500167" transform="matrix(1.24865 0 0 1.24176 .145 -.243)"/></svg>